<mxfile host="app.diagrams.net" modified="2023-07-23T13:50:27.539Z" agent="Mozilla/5.0 (Windows NT 10.0; Win64; x64) AppleWebKit/537.36 (KHTML, like Gecko) Chrome/114.0.0.0 Safari/537.36 Edg/114.0.1823.82" etag="Pctp01Y6wRVcLIf6tAjY" version="21.6.5" type="github">
  <diagram name="第 1 页" id="DG2D82TR6aC_-e0-gpdX">
    <mxGraphModel dx="1050" dy="549" grid="1" gridSize="10" guides="1" tooltips="1" connect="1" arrows="1" fold="1" page="1" pageScale="1" pageWidth="827" pageHeight="1169" math="0" shadow="0">
      <root>
        <mxCell id="0" />
        <mxCell id="1" parent="0" />
        <mxCell id="nw_l11g8Su9bGpTwZJpI-3" value="" style="edgeStyle=orthogonalEdgeStyle;rounded=0;orthogonalLoop=1;jettySize=auto;html=1;entryX=0.5;entryY=0;entryDx=0;entryDy=0;" parent="1" source="nw_l11g8Su9bGpTwZJpI-1" target="nw_l11g8Su9bGpTwZJpI-4" edge="1">
          <mxGeometry relative="1" as="geometry">
            <mxPoint x="180" y="160" as="targetPoint" />
          </mxGeometry>
        </mxCell>
        <mxCell id="nvscxIcwR_W6ocfLrydv-76" value="" style="edgeStyle=orthogonalEdgeStyle;rounded=0;orthogonalLoop=1;jettySize=auto;html=1;fillColor=#f5f5f5;strokeColor=#666666;" parent="1" source="nw_l11g8Su9bGpTwZJpI-1" target="nvscxIcwR_W6ocfLrydv-75" edge="1">
          <mxGeometry relative="1" as="geometry" />
        </mxCell>
        <mxCell id="nw_l11g8Su9bGpTwZJpI-1" value="运行webpack-dev-server" style="rounded=0;whiteSpace=wrap;html=1;" parent="1" vertex="1">
          <mxGeometry x="120" width="120" height="40" as="geometry" />
        </mxCell>
        <mxCell id="nw_l11g8Su9bGpTwZJpI-23" value="" style="edgeStyle=orthogonalEdgeStyle;rounded=0;orthogonalLoop=1;jettySize=auto;html=1;" parent="1" source="nw_l11g8Su9bGpTwZJpI-4" edge="1">
          <mxGeometry relative="1" as="geometry">
            <mxPoint x="180" y="160" as="targetPoint" />
          </mxGeometry>
        </mxCell>
        <mxCell id="nw_l11g8Su9bGpTwZJpI-4" value="创建compiler对象" style="rounded=0;whiteSpace=wrap;html=1;" parent="1" vertex="1">
          <mxGeometry x="120" y="80" width="120" height="40" as="geometry" />
        </mxCell>
        <mxCell id="nw_l11g8Su9bGpTwZJpI-10" value="" style="whiteSpace=wrap;html=1;rounded=0;" parent="1" vertex="1">
          <mxGeometry x="100" y="235" width="614" height="465" as="geometry" />
        </mxCell>
        <mxCell id="nw_l11g8Su9bGpTwZJpI-15" value="" style="edgeStyle=orthogonalEdgeStyle;rounded=0;orthogonalLoop=1;jettySize=auto;html=1;" parent="1" source="nw_l11g8Su9bGpTwZJpI-12" target="nw_l11g8Su9bGpTwZJpI-14" edge="1">
          <mxGeometry relative="1" as="geometry" />
        </mxCell>
        <mxCell id="nw_l11g8Su9bGpTwZJpI-12" value="更改配置文件的entry属性" style="rounded=0;whiteSpace=wrap;html=1;" parent="1" vertex="1">
          <mxGeometry x="120" y="260" width="120" height="40" as="geometry" />
        </mxCell>
        <mxCell id="nw_l11g8Su9bGpTwZJpI-17" value="" style="edgeStyle=orthogonalEdgeStyle;rounded=0;orthogonalLoop=1;jettySize=auto;html=1;" parent="1" source="nw_l11g8Su9bGpTwZJpI-14" target="nw_l11g8Su9bGpTwZJpI-16" edge="1">
          <mxGeometry relative="1" as="geometry" />
        </mxCell>
        <mxCell id="nw_l11g8Su9bGpTwZJpI-14" value="setuphooks监听done事件" style="whiteSpace=wrap;html=1;rounded=0;fillColor=#dae8fc;strokeColor=#6c8ebf;" parent="1" vertex="1">
          <mxGeometry x="120" y="330" width="120" height="40" as="geometry" />
        </mxCell>
        <mxCell id="nw_l11g8Su9bGpTwZJpI-50" value="" style="edgeStyle=orthogonalEdgeStyle;rounded=0;orthogonalLoop=1;jettySize=auto;html=1;" parent="1" source="nw_l11g8Su9bGpTwZJpI-16" target="nw_l11g8Su9bGpTwZJpI-49" edge="1">
          <mxGeometry relative="1" as="geometry" />
        </mxCell>
        <mxCell id="nw_l11g8Su9bGpTwZJpI-16" value="setupDevMIddleware" style="whiteSpace=wrap;html=1;rounded=0;fillColor=#dae8fc;strokeColor=#6c8ebf;" parent="1" vertex="1">
          <mxGeometry x="120" y="430" width="120" height="40" as="geometry" />
        </mxCell>
        <mxCell id="nw_l11g8Su9bGpTwZJpI-18" value="" style="whiteSpace=wrap;html=1;rounded=0;" parent="1" vertex="1">
          <mxGeometry x="330" y="420" width="140" height="150" as="geometry" />
        </mxCell>
        <mxCell id="nw_l11g8Su9bGpTwZJpI-21" value="webpackDevMiddleware" style="text;html=1;strokeColor=none;fillColor=none;align=center;verticalAlign=middle;whiteSpace=wrap;rounded=0;" parent="1" vertex="1">
          <mxGeometry x="370" y="390" width="60" height="30" as="geometry" />
        </mxCell>
        <mxCell id="nw_l11g8Su9bGpTwZJpI-22" value="开启watch模式" style="rounded=0;whiteSpace=wrap;html=1;" parent="1" vertex="1">
          <mxGeometry x="340" y="430" width="120" height="60" as="geometry" />
        </mxCell>
        <mxCell id="nw_l11g8Su9bGpTwZJpI-25" value="" style="edgeStyle=orthogonalEdgeStyle;rounded=0;orthogonalLoop=1;jettySize=auto;html=1;" parent="1" source="nw_l11g8Su9bGpTwZJpI-24" edge="1">
          <mxGeometry relative="1" as="geometry">
            <mxPoint x="180" y="240" as="targetPoint" />
          </mxGeometry>
        </mxCell>
        <mxCell id="nw_l11g8Su9bGpTwZJpI-24" value="创建Server服务器" style="rounded=0;whiteSpace=wrap;html=1;fillColor=#dae8fc;strokeColor=#6c8ebf;" parent="1" vertex="1">
          <mxGeometry x="120" y="160" width="120" height="40" as="geometry" />
        </mxCell>
        <mxCell id="nw_l11g8Su9bGpTwZJpI-27" value="Server类" style="text;html=1;strokeColor=none;fillColor=none;align=center;verticalAlign=middle;whiteSpace=wrap;rounded=0;" parent="1" vertex="1">
          <mxGeometry x="370" y="210" width="60" height="30" as="geometry" />
        </mxCell>
        <mxCell id="nw_l11g8Su9bGpTwZJpI-28" value="返回静态文件中间件" style="rounded=0;whiteSpace=wrap;html=1;" parent="1" vertex="1">
          <mxGeometry x="340" y="510" width="120" height="40" as="geometry" />
        </mxCell>
        <mxCell id="nw_l11g8Su9bGpTwZJpI-29" value="文件系统" style="rounded=0;whiteSpace=wrap;html=1;" parent="1" vertex="1">
          <mxGeometry x="540" y="430" width="120" height="60" as="geometry" />
        </mxCell>
        <mxCell id="nw_l11g8Su9bGpTwZJpI-57" value="" style="edgeStyle=orthogonalEdgeStyle;rounded=0;orthogonalLoop=1;jettySize=auto;html=1;entryX=0;entryY=0.5;entryDx=0;entryDy=0;dashed=1;strokeColor=#FF0000;" parent="1" source="nw_l11g8Su9bGpTwZJpI-43" target="nw_l11g8Su9bGpTwZJpI-56" edge="1">
          <mxGeometry relative="1" as="geometry">
            <mxPoint x="760" y="280" as="targetPoint" />
            <Array as="points">
              <mxPoint x="400" y="258" />
              <mxPoint x="620" y="258" />
            </Array>
          </mxGeometry>
        </mxCell>
        <mxCell id="nw_l11g8Su9bGpTwZJpI-43" value="compiler.hooks.done事件" style="rounded=0;whiteSpace=wrap;html=1;" parent="1" vertex="1">
          <mxGeometry x="340" y="330" width="120" height="40" as="geometry" />
        </mxCell>
        <mxCell id="nw_l11g8Su9bGpTwZJpI-45" value="" style="endArrow=classic;html=1;rounded=0;exitX=1;exitY=0.5;exitDx=0;exitDy=0;entryX=1;entryY=0.5;entryDx=0;entryDy=0;strokeColor=#FF0000;" parent="1" source="nw_l11g8Su9bGpTwZJpI-29" target="nw_l11g8Su9bGpTwZJpI-43" edge="1">
          <mxGeometry width="50" height="50" relative="1" as="geometry">
            <mxPoint x="330" y="440" as="sourcePoint" />
            <mxPoint x="380" y="390" as="targetPoint" />
            <Array as="points">
              <mxPoint x="690" y="460" />
              <mxPoint x="690" y="350" />
            </Array>
          </mxGeometry>
        </mxCell>
        <mxCell id="nw_l11g8Su9bGpTwZJpI-52" value="" style="edgeStyle=orthogonalEdgeStyle;rounded=0;orthogonalLoop=1;jettySize=auto;html=1;" parent="1" source="nw_l11g8Su9bGpTwZJpI-49" target="nw_l11g8Su9bGpTwZJpI-51" edge="1">
          <mxGeometry relative="1" as="geometry" />
        </mxCell>
        <mxCell id="nw_l11g8Su9bGpTwZJpI-49" value="routes配置路由" style="whiteSpace=wrap;html=1;rounded=0;" parent="1" vertex="1">
          <mxGeometry x="120" y="500" width="120" height="40" as="geometry" />
        </mxCell>
        <mxCell id="nw_l11g8Su9bGpTwZJpI-54" value="" style="edgeStyle=orthogonalEdgeStyle;rounded=0;orthogonalLoop=1;jettySize=auto;html=1;" parent="1" source="nw_l11g8Su9bGpTwZJpI-51" target="nw_l11g8Su9bGpTwZJpI-53" edge="1">
          <mxGeometry relative="1" as="geometry" />
        </mxCell>
        <mxCell id="nw_l11g8Su9bGpTwZJpI-51" value="创建HTTP服务器" style="whiteSpace=wrap;html=1;rounded=0;" parent="1" vertex="1">
          <mxGeometry x="120" y="580" width="120" height="40" as="geometry" />
        </mxCell>
        <mxCell id="nw_l11g8Su9bGpTwZJpI-53" value="创建websocket服务器" style="whiteSpace=wrap;html=1;rounded=0;" parent="1" vertex="1">
          <mxGeometry x="120" y="650" width="120" height="40" as="geometry" />
        </mxCell>
        <mxCell id="nw_l11g8Su9bGpTwZJpI-56" value="发送hash、ok事件" style="rounded=0;whiteSpace=wrap;html=1;" parent="1" vertex="1">
          <mxGeometry x="740" y="240" width="100" height="35" as="geometry" />
        </mxCell>
        <mxCell id="nvscxIcwR_W6ocfLrydv-2" value="" style="endArrow=classic;html=1;rounded=0;exitX=1;exitY=0.5;exitDx=0;exitDy=0;entryX=0;entryY=0.5;entryDx=0;entryDy=0;" parent="1" source="nw_l11g8Su9bGpTwZJpI-14" target="nw_l11g8Su9bGpTwZJpI-43" edge="1">
          <mxGeometry relative="1" as="geometry">
            <mxPoint x="350" y="430" as="sourcePoint" />
            <mxPoint x="450" y="430" as="targetPoint" />
          </mxGeometry>
        </mxCell>
        <mxCell id="nvscxIcwR_W6ocfLrydv-3" value="定义" style="edgeLabel;resizable=0;html=1;align=center;verticalAlign=middle;" parent="nvscxIcwR_W6ocfLrydv-2" connectable="0" vertex="1">
          <mxGeometry relative="1" as="geometry" />
        </mxCell>
        <mxCell id="nvscxIcwR_W6ocfLrydv-7" value="" style="endArrow=classic;html=1;rounded=0;exitX=1;exitY=0.5;exitDx=0;exitDy=0;" parent="1" source="nw_l11g8Su9bGpTwZJpI-16" edge="1">
          <mxGeometry relative="1" as="geometry">
            <mxPoint x="290" y="440" as="sourcePoint" />
            <mxPoint x="330" y="450" as="targetPoint" />
          </mxGeometry>
        </mxCell>
        <mxCell id="nvscxIcwR_W6ocfLrydv-8" value="返回&lt;br&gt;中间件函数" style="edgeLabel;resizable=0;html=1;align=center;verticalAlign=middle;" parent="nvscxIcwR_W6ocfLrydv-7" connectable="0" vertex="1">
          <mxGeometry relative="1" as="geometry" />
        </mxCell>
        <mxCell id="nvscxIcwR_W6ocfLrydv-9" value="" style="endArrow=classic;html=1;rounded=0;exitX=1;exitY=0.75;exitDx=0;exitDy=0;entryX=0;entryY=0.75;entryDx=0;entryDy=0;strokeColor=#FF0000;" parent="1" source="nw_l11g8Su9bGpTwZJpI-22" target="nw_l11g8Su9bGpTwZJpI-29" edge="1">
          <mxGeometry relative="1" as="geometry">
            <mxPoint x="450" y="510" as="sourcePoint" />
            <mxPoint x="550" y="510" as="targetPoint" />
          </mxGeometry>
        </mxCell>
        <mxCell id="nvscxIcwR_W6ocfLrydv-10" value="编译结果&lt;br&gt;输出" style="edgeLabel;resizable=0;html=1;align=center;verticalAlign=middle;" parent="nvscxIcwR_W6ocfLrydv-9" connectable="0" vertex="1">
          <mxGeometry relative="1" as="geometry" />
        </mxCell>
        <mxCell id="nvscxIcwR_W6ocfLrydv-11" value="" style="endArrow=classic;html=1;rounded=0;entryX=1;entryY=0.25;entryDx=0;entryDy=0;exitX=0;exitY=0.25;exitDx=0;exitDy=0;" parent="1" source="nw_l11g8Su9bGpTwZJpI-29" target="nw_l11g8Su9bGpTwZJpI-22" edge="1">
          <mxGeometry relative="1" as="geometry">
            <mxPoint x="360" y="510" as="sourcePoint" />
            <mxPoint x="460" y="510" as="targetPoint" />
          </mxGeometry>
        </mxCell>
        <mxCell id="nvscxIcwR_W6ocfLrydv-12" value="监听" style="edgeLabel;resizable=0;html=1;align=center;verticalAlign=middle;" parent="nvscxIcwR_W6ocfLrydv-11" connectable="0" vertex="1">
          <mxGeometry relative="1" as="geometry" />
        </mxCell>
        <mxCell id="nvscxIcwR_W6ocfLrydv-15" value="" style="edgeStyle=orthogonalEdgeStyle;rounded=0;orthogonalLoop=1;jettySize=auto;html=1;" parent="1" source="nvscxIcwR_W6ocfLrydv-13" target="nvscxIcwR_W6ocfLrydv-14" edge="1">
          <mxGeometry relative="1" as="geometry" />
        </mxCell>
        <mxCell id="nvscxIcwR_W6ocfLrydv-13" value="形成基本bundle文件" style="rounded=0;whiteSpace=wrap;html=1;fillColor=#dae8fc;strokeColor=#6c8ebf;" parent="1" vertex="1">
          <mxGeometry x="1241" width="120" height="40" as="geometry" />
        </mxCell>
        <mxCell id="nvscxIcwR_W6ocfLrydv-14" value="一部分运行时代码" style="whiteSpace=wrap;html=1;rounded=0;" parent="1" vertex="1">
          <mxGeometry x="1241" y="80" width="120" height="40" as="geometry" />
        </mxCell>
        <mxCell id="nvscxIcwR_W6ocfLrydv-19" value="" style="edgeStyle=orthogonalEdgeStyle;rounded=0;orthogonalLoop=1;jettySize=auto;html=1;" parent="1" source="nvscxIcwR_W6ocfLrydv-16" target="nvscxIcwR_W6ocfLrydv-18" edge="1">
          <mxGeometry relative="1" as="geometry" />
        </mxCell>
        <mxCell id="nvscxIcwR_W6ocfLrydv-16" value="维护父子间模块关系" style="whiteSpace=wrap;html=1;rounded=0;fillColor=#dae8fc;strokeColor=#6c8ebf;" parent="1" vertex="1">
          <mxGeometry x="1241" y="235" width="120" height="40" as="geometry" />
        </mxCell>
        <mxCell id="nvscxIcwR_W6ocfLrydv-18" value="补充accept和check方法" style="whiteSpace=wrap;html=1;rounded=0;" parent="1" vertex="1">
          <mxGeometry x="1241" y="315" width="120" height="40" as="geometry" />
        </mxCell>
        <mxCell id="nvscxIcwR_W6ocfLrydv-21" value="webpack-dev-server/client/index.js" style="rounded=0;whiteSpace=wrap;html=1;" parent="1" vertex="1">
          <mxGeometry x="920" y="80" width="120" height="40" as="geometry" />
        </mxCell>
        <mxCell id="nvscxIcwR_W6ocfLrydv-22" value="webpack/hot/dev-server.js" style="rounded=0;whiteSpace=wrap;html=1;" parent="1" vertex="1">
          <mxGeometry x="1080" y="80" width="120" height="40" as="geometry" />
        </mxCell>
        <mxCell id="nvscxIcwR_W6ocfLrydv-23" value="" style="endArrow=classic;html=1;rounded=0;exitX=0.5;exitY=1;exitDx=0;exitDy=0;entryX=0.5;entryY=0;entryDx=0;entryDy=0;" parent="1" source="nvscxIcwR_W6ocfLrydv-13" target="nvscxIcwR_W6ocfLrydv-21" edge="1">
          <mxGeometry width="50" height="50" relative="1" as="geometry">
            <mxPoint x="1250" y="70" as="sourcePoint" />
            <mxPoint x="1270" y="170" as="targetPoint" />
          </mxGeometry>
        </mxCell>
        <mxCell id="nvscxIcwR_W6ocfLrydv-24" value="" style="endArrow=classic;html=1;rounded=0;exitX=0.5;exitY=1;exitDx=0;exitDy=0;entryX=0.5;entryY=0;entryDx=0;entryDy=0;" parent="1" source="nvscxIcwR_W6ocfLrydv-13" target="nvscxIcwR_W6ocfLrydv-22" edge="1">
          <mxGeometry width="50" height="50" relative="1" as="geometry">
            <mxPoint x="1220" y="220" as="sourcePoint" />
            <mxPoint x="1270" y="170" as="targetPoint" />
          </mxGeometry>
        </mxCell>
        <mxCell id="nvscxIcwR_W6ocfLrydv-28" value="" style="endArrow=none;dashed=1;html=1;rounded=0;exitX=1;exitY=0.5;exitDx=0;exitDy=0;entryX=0.076;entryY=0.511;entryDx=0;entryDy=0;entryPerimeter=0;" parent="1" source="nw_l11g8Su9bGpTwZJpI-12" target="nvscxIcwR_W6ocfLrydv-49" edge="1">
          <mxGeometry width="50" height="50" relative="1" as="geometry">
            <mxPoint x="570" y="290" as="sourcePoint" />
            <mxPoint x="960" y="180" as="targetPoint" />
            <Array as="points">
              <mxPoint x="300" y="280" />
              <mxPoint x="300" y="180" />
              <mxPoint x="650" y="180" />
            </Array>
          </mxGeometry>
        </mxCell>
        <mxCell id="nvscxIcwR_W6ocfLrydv-29" value="连接websocket服务器" style="whiteSpace=wrap;html=1;rounded=0;fillColor=#dae8fc;strokeColor=#6c8ebf;" parent="1" vertex="1">
          <mxGeometry x="920" y="235" width="120" height="40" as="geometry" />
        </mxCell>
        <mxCell id="nvscxIcwR_W6ocfLrydv-31" value="" style="endArrow=classic;html=1;rounded=0;exitX=0.5;exitY=1;exitDx=0;exitDy=0;entryX=0.5;entryY=0;entryDx=0;entryDy=0;" parent="1" source="nvscxIcwR_W6ocfLrydv-29" target="nvscxIcwR_W6ocfLrydv-32" edge="1">
          <mxGeometry width="50" height="50" relative="1" as="geometry">
            <mxPoint x="930" y="285" as="sourcePoint" />
            <mxPoint x="950" y="305" as="targetPoint" />
          </mxGeometry>
        </mxCell>
        <mxCell id="nvscxIcwR_W6ocfLrydv-36" value="" style="edgeStyle=orthogonalEdgeStyle;rounded=0;orthogonalLoop=1;jettySize=auto;html=1;" parent="1" source="nvscxIcwR_W6ocfLrydv-32" target="nvscxIcwR_W6ocfLrydv-35" edge="1">
          <mxGeometry relative="1" as="geometry" />
        </mxCell>
        <mxCell id="nvscxIcwR_W6ocfLrydv-32" value="hash事件" style="rounded=0;whiteSpace=wrap;html=1;" parent="1" vertex="1">
          <mxGeometry x="910" y="315" width="60" height="40" as="geometry" />
        </mxCell>
        <mxCell id="nvscxIcwR_W6ocfLrydv-38" value="" style="edgeStyle=orthogonalEdgeStyle;rounded=0;orthogonalLoop=1;jettySize=auto;html=1;strokeColor=#FF0000;" parent="1" source="nvscxIcwR_W6ocfLrydv-33" target="nvscxIcwR_W6ocfLrydv-37" edge="1">
          <mxGeometry relative="1" as="geometry" />
        </mxCell>
        <mxCell id="nvscxIcwR_W6ocfLrydv-33" value="ok事件" style="rounded=0;whiteSpace=wrap;html=1;" parent="1" vertex="1">
          <mxGeometry x="990" y="315" width="60" height="40" as="geometry" />
        </mxCell>
        <mxCell id="nvscxIcwR_W6ocfLrydv-34" value="" style="endArrow=classic;html=1;rounded=0;entryX=0.5;entryY=0;entryDx=0;entryDy=0;" parent="1" target="nvscxIcwR_W6ocfLrydv-33" edge="1">
          <mxGeometry width="50" height="50" relative="1" as="geometry">
            <mxPoint x="980" y="275" as="sourcePoint" />
            <mxPoint x="950" y="320" as="targetPoint" />
          </mxGeometry>
        </mxCell>
        <mxCell id="nvscxIcwR_W6ocfLrydv-35" value="保存hash值" style="whiteSpace=wrap;html=1;rounded=0;" parent="1" vertex="1">
          <mxGeometry x="910" y="395" width="60" height="40" as="geometry" />
        </mxCell>
        <mxCell id="nvscxIcwR_W6ocfLrydv-37" value="realoadApp" style="whiteSpace=wrap;html=1;rounded=0;" parent="1" vertex="1">
          <mxGeometry x="990" y="395" width="60" height="40" as="geometry" />
        </mxCell>
        <mxCell id="nvscxIcwR_W6ocfLrydv-39" value="" style="endArrow=classic;html=1;rounded=0;exitX=0.5;exitY=1;exitDx=0;exitDy=0;entryX=0;entryY=0.5;entryDx=0;entryDy=0;strokeColor=#FF0000;" parent="1" source="nvscxIcwR_W6ocfLrydv-37" target="nvscxIcwR_W6ocfLrydv-41" edge="1">
          <mxGeometry relative="1" as="geometry">
            <mxPoint x="1090" y="345" as="sourcePoint" />
            <mxPoint x="1060" y="255" as="targetPoint" />
            <Array as="points">
              <mxPoint x="1020" y="485" />
              <mxPoint x="1060" y="485" />
              <mxPoint x="1060" y="255" />
            </Array>
          </mxGeometry>
        </mxCell>
        <mxCell id="nvscxIcwR_W6ocfLrydv-40" value="发送Update" style="edgeLabel;resizable=0;html=1;align=center;verticalAlign=middle;" parent="nvscxIcwR_W6ocfLrydv-39" connectable="0" vertex="1">
          <mxGeometry relative="1" as="geometry" />
        </mxCell>
        <mxCell id="nvscxIcwR_W6ocfLrydv-44" value="" style="edgeStyle=orthogonalEdgeStyle;rounded=0;orthogonalLoop=1;jettySize=auto;html=1;strokeColor=#FF0000;" parent="1" source="nvscxIcwR_W6ocfLrydv-41" target="nvscxIcwR_W6ocfLrydv-43" edge="1">
          <mxGeometry relative="1" as="geometry" />
        </mxCell>
        <mxCell id="nvscxIcwR_W6ocfLrydv-41" value="监听webpackHotUpdate&lt;br&gt;webpack_base_hmr" style="whiteSpace=wrap;html=1;rounded=0;" parent="1" vertex="1">
          <mxGeometry x="1080" y="235" width="120" height="40" as="geometry" />
        </mxCell>
        <mxCell id="nvscxIcwR_W6ocfLrydv-50" value="" style="edgeStyle=orthogonalEdgeStyle;rounded=0;orthogonalLoop=1;jettySize=auto;html=1;strokeColor=#FF0000;" parent="1" source="nvscxIcwR_W6ocfLrydv-43" target="nvscxIcwR_W6ocfLrydv-18" edge="1">
          <mxGeometry relative="1" as="geometry" />
        </mxCell>
        <mxCell id="nvscxIcwR_W6ocfLrydv-43" value="触发check请求" style="whiteSpace=wrap;html=1;rounded=0;fillColor=#dae8fc;strokeColor=#6c8ebf;" parent="1" vertex="1">
          <mxGeometry x="1080" y="315" width="120" height="40" as="geometry" />
        </mxCell>
        <mxCell id="nvscxIcwR_W6ocfLrydv-46" value="" style="strokeWidth=1;html=1;shape=mxgraph.flowchart.annotation_2;align=left;labelPosition=right;pointerEvents=1;direction=north;dashed=1;" parent="1" vertex="1">
          <mxGeometry x="980" y="120" width="320" height="30" as="geometry" />
        </mxCell>
        <mxCell id="nvscxIcwR_W6ocfLrydv-48" value="" style="endArrow=none;dashed=1;html=1;rounded=0;entryX=-2.4;entryY=0.5;entryDx=0;entryDy=0;entryPerimeter=0;exitX=0;exitY=0.5;exitDx=0;exitDy=0;exitPerimeter=0;" parent="1" edge="1">
          <mxGeometry width="50" height="50" relative="1" as="geometry">
            <mxPoint x="1139.9999999999998" y="210" as="sourcePoint" />
            <mxPoint x="1139.9999999999998" y="150" as="targetPoint" />
          </mxGeometry>
        </mxCell>
        <mxCell id="nvscxIcwR_W6ocfLrydv-49" value="bundle文件" style="text;html=1;strokeColor=none;fillColor=none;align=center;verticalAlign=middle;whiteSpace=wrap;rounded=0;" parent="1" vertex="1">
          <mxGeometry x="1140" y="165" width="80" height="30" as="geometry" />
        </mxCell>
        <mxCell id="nvscxIcwR_W6ocfLrydv-51" value="" style="endArrow=classic;html=1;rounded=0;exitX=1;exitY=0.5;exitDx=0;exitDy=0;entryX=0.5;entryY=0;entryDx=0;entryDy=0;dashed=1;strokeColor=#FF0000;" parent="1" source="nw_l11g8Su9bGpTwZJpI-56" target="nvscxIcwR_W6ocfLrydv-33" edge="1">
          <mxGeometry width="50" height="50" relative="1" as="geometry">
            <mxPoint x="810" y="300" as="sourcePoint" />
            <mxPoint x="860" y="250" as="targetPoint" />
          </mxGeometry>
        </mxCell>
        <mxCell id="nvscxIcwR_W6ocfLrydv-54" value="" style="endArrow=classic;html=1;rounded=0;entryX=0.5;entryY=0;entryDx=0;entryDy=0;dashed=1;" parent="1" target="nvscxIcwR_W6ocfLrydv-32" edge="1">
          <mxGeometry width="50" height="50" relative="1" as="geometry">
            <mxPoint x="840" y="260" as="sourcePoint" />
            <mxPoint x="860" y="250" as="targetPoint" />
          </mxGeometry>
        </mxCell>
        <mxCell id="nvscxIcwR_W6ocfLrydv-55" value="" style="endArrow=classic;html=1;rounded=0;exitX=0.5;exitY=1;exitDx=0;exitDy=0;strokeColor=#FF0000;" parent="1" source="nvscxIcwR_W6ocfLrydv-18" edge="1">
          <mxGeometry relative="1" as="geometry">
            <mxPoint x="1160" y="440" as="sourcePoint" />
            <mxPoint x="1300" y="400" as="targetPoint" />
          </mxGeometry>
        </mxCell>
        <mxCell id="nvscxIcwR_W6ocfLrydv-58" value="执行webpackHotUpdate&lt;br style=&quot;border-color: var(--border-color);&quot;&gt;webpack_base_hmr" style="rounded=0;whiteSpace=wrap;html=1;" parent="1" vertex="1">
          <mxGeometry x="1241" y="470" width="120" height="40" as="geometry" />
        </mxCell>
        <mxCell id="nvscxIcwR_W6ocfLrydv-65" value="" style="edgeStyle=orthogonalEdgeStyle;rounded=0;orthogonalLoop=1;jettySize=auto;html=1;strokeColor=#FF0000;" parent="1" source="nvscxIcwR_W6ocfLrydv-59" target="nvscxIcwR_W6ocfLrydv-64" edge="1">
          <mxGeometry relative="1" as="geometry" />
        </mxCell>
        <mxCell id="nvscxIcwR_W6ocfLrydv-59" value="新模块覆盖老模块" style="whiteSpace=wrap;html=1;rounded=0;fillColor=#dae8fc;strokeColor=#6c8ebf;" parent="1" vertex="1">
          <mxGeometry x="1241" y="550" width="120" height="40" as="geometry" />
        </mxCell>
        <mxCell id="nvscxIcwR_W6ocfLrydv-61" value="" style="endArrow=classic;html=1;rounded=0;entryX=0.5;entryY=0;entryDx=0;entryDy=0;exitX=0.5;exitY=1;exitDx=0;exitDy=0;strokeColor=#FF0000;" parent="1" source="nvscxIcwR_W6ocfLrydv-58" target="nvscxIcwR_W6ocfLrydv-59" edge="1">
          <mxGeometry relative="1" as="geometry">
            <mxPoint x="1370" y="520" as="sourcePoint" />
            <mxPoint x="1260" y="510" as="targetPoint" />
          </mxGeometry>
        </mxCell>
        <mxCell id="nvscxIcwR_W6ocfLrydv-62" value="hotapply" style="edgeLabel;resizable=0;html=1;align=center;verticalAlign=middle;" parent="nvscxIcwR_W6ocfLrydv-61" connectable="0" vertex="1">
          <mxGeometry relative="1" as="geometry" />
        </mxCell>
        <mxCell id="nvscxIcwR_W6ocfLrydv-64" value="执行父模块中的回调函数" style="whiteSpace=wrap;html=1;rounded=0;" parent="1" vertex="1">
          <mxGeometry x="1241" y="630" width="120" height="40" as="geometry" />
        </mxCell>
        <mxCell id="nvscxIcwR_W6ocfLrydv-68" value="" style="edgeStyle=orthogonalEdgeStyle;rounded=0;orthogonalLoop=1;jettySize=auto;html=1;" parent="1" edge="1">
          <mxGeometry relative="1" as="geometry">
            <mxPoint x="970" y="920" as="sourcePoint" />
            <mxPoint x="970" y="920" as="targetPoint" />
          </mxGeometry>
        </mxCell>
        <mxCell id="nvscxIcwR_W6ocfLrydv-69" value="" style="edgeStyle=orthogonalEdgeStyle;rounded=0;orthogonalLoop=1;jettySize=auto;html=1;" parent="1" edge="1">
          <mxGeometry relative="1" as="geometry">
            <mxPoint x="970" y="920" as="sourcePoint" />
            <mxPoint x="970" y="920" as="targetPoint" />
          </mxGeometry>
        </mxCell>
        <mxCell id="nvscxIcwR_W6ocfLrydv-70" value="" style="edgeStyle=orthogonalEdgeStyle;rounded=0;orthogonalLoop=1;jettySize=auto;html=1;" parent="1" edge="1">
          <mxGeometry relative="1" as="geometry">
            <mxPoint x="970" y="920" as="sourcePoint" />
            <mxPoint x="970" y="920" as="targetPoint" />
          </mxGeometry>
        </mxCell>
        <mxCell id="nvscxIcwR_W6ocfLrydv-71" value="请求JSON、JS文件" style="rounded=0;whiteSpace=wrap;html=1;fillColor=#dae8fc;strokeColor=#6c8ebf;" parent="1" vertex="1">
          <mxGeometry x="1241" y="395" width="120" height="40" as="geometry" />
        </mxCell>
        <mxCell id="nvscxIcwR_W6ocfLrydv-74" value="" style="endArrow=classic;html=1;rounded=0;exitX=0.5;exitY=1;exitDx=0;exitDy=0;entryX=0.5;entryY=0;entryDx=0;entryDy=0;strokeColor=#FF0000;" parent="1" source="nvscxIcwR_W6ocfLrydv-71" target="nvscxIcwR_W6ocfLrydv-58" edge="1">
          <mxGeometry width="50" height="50" relative="1" as="geometry">
            <mxPoint x="1270" y="440" as="sourcePoint" />
            <mxPoint x="1320" y="390" as="targetPoint" />
          </mxGeometry>
        </mxCell>
        <mxCell id="nvscxIcwR_W6ocfLrydv-78" value="" style="edgeStyle=orthogonalEdgeStyle;rounded=0;orthogonalLoop=1;jettySize=auto;html=1;fillColor=#f5f5f5;strokeColor=#666666;" parent="1" source="nvscxIcwR_W6ocfLrydv-75" target="nvscxIcwR_W6ocfLrydv-77" edge="1">
          <mxGeometry relative="1" as="geometry" />
        </mxCell>
        <mxCell id="nvscxIcwR_W6ocfLrydv-75" value="HotModuleReplacement" style="whiteSpace=wrap;html=1;rounded=0;fillColor=#f5f5f5;fontColor=#333333;strokeColor=#666666;" parent="1" vertex="1">
          <mxGeometry x="320" y="20" width="120" height="40" as="geometry" />
        </mxCell>
        <mxCell id="nvscxIcwR_W6ocfLrydv-77" value="JSON" style="whiteSpace=wrap;html=1;rounded=0;fillColor=#f5f5f5;fontColor=#333333;strokeColor=#666666;" parent="1" vertex="1">
          <mxGeometry x="520" width="120" height="30" as="geometry" />
        </mxCell>
        <mxCell id="nvscxIcwR_W6ocfLrydv-80" value="" style="endArrow=classic;html=1;rounded=0;exitX=1;exitY=0.5;exitDx=0;exitDy=0;fillColor=#f5f5f5;strokeColor=#666666;" parent="1" source="nvscxIcwR_W6ocfLrydv-75" edge="1">
          <mxGeometry width="50" height="50" relative="1" as="geometry">
            <mxPoint x="410" y="200" as="sourcePoint" />
            <mxPoint x="520" y="40" as="targetPoint" />
          </mxGeometry>
        </mxCell>
        <mxCell id="nvscxIcwR_W6ocfLrydv-81" value="JS" style="rounded=0;whiteSpace=wrap;html=1;fillColor=#f5f5f5;fontColor=#333333;strokeColor=#666666;" parent="1" vertex="1">
          <mxGeometry x="520" y="25" width="120" height="30" as="geometry" />
        </mxCell>
        <mxCell id="nvscxIcwR_W6ocfLrydv-82" value="" style="endArrow=classic;html=1;rounded=0;fillColor=#f5f5f5;strokeColor=#666666;" parent="1" edge="1">
          <mxGeometry width="50" height="50" relative="1" as="geometry">
            <mxPoint x="440" y="40" as="sourcePoint" />
            <mxPoint x="520" y="70" as="targetPoint" />
            <Array as="points">
              <mxPoint x="480" y="40" />
              <mxPoint x="480" y="70" />
            </Array>
          </mxGeometry>
        </mxCell>
        <mxCell id="nvscxIcwR_W6ocfLrydv-84" value="注入运行时代码" style="rounded=0;whiteSpace=wrap;html=1;fillColor=#f5f5f5;fontColor=#333333;strokeColor=#666666;" parent="1" vertex="1">
          <mxGeometry x="520" y="55" width="120" height="25" as="geometry" />
        </mxCell>
        <mxCell id="nvscxIcwR_W6ocfLrydv-85" value="" style="strokeWidth=1;html=1;shape=mxgraph.flowchart.annotation_2;align=left;labelPosition=right;pointerEvents=1;direction=south;dashed=1;fillColor=#FF0000;" parent="1" vertex="1">
          <mxGeometry x="980" y="210" width="320" height="25" as="geometry" />
        </mxCell>
      </root>
    </mxGraphModel>
  </diagram>
</mxfile>
